<?xml version="1.0" standalone="no"?>
<!DOCTYPE svg PUBLIC "-//W3C//DTD SVG 20010904//EN"
 "http://www.w3.org/TR/2001/REC-SVG-20010904/DTD/svg10.dtd">
<svg version="1.0" xmlns="http://www.w3.org/2000/svg"
 width="2000.000000pt" height="2000.000000pt" viewBox="0 0 2000.000000 2000.000000"
 preserveAspectRatio="xMidYMid meet">
<metadata>
Created by potrace 1.14, written by Peter Selinger 2001-2017
</metadata>
<g transform="translate(0.000000,2000.000000) scale(0.100000,-0.100000)"
fill="#000000" stroke="none">
<path d="M9568 19995 c-1 -1 -59 -6 -128 -9 -68 -4 -145 -9 -170 -11 -41 -4
-161 -14 -235 -20 -101 -9 -210 -21 -275 -30 -19 -3 -57 -7 -85 -11 -27 -3
-57 -7 -65 -9 -8 -2 -40 -7 -70 -10 -45 -5 -182 -28 -370 -60 -14 -2 -92 -18
-175 -36 -82 -17 -161 -33 -175 -35 -62 -12 -370 -90 -515 -130 -821 -230
-1623 -570 -2350 -996 -60 -36 -121 -71 -135 -79 -14 -8 -27 -17 -30 -20 -3
-3 -30 -20 -60 -37 -147 -86 -516 -338 -722 -493 -173 -130 -498 -393 -569
-459 -8 -8 -51 -46 -95 -85 -134 -118 -212 -192 -414 -395 -482 -482 -802
-869 -1223 -1476 -154 -223 -412 -654 -567 -950 -75 -142 -84 -159 -85 -164
-1 -3 -34 -72 -74 -155 -136 -278 -361 -813 -386 -915 -2 -8 -20 -60 -40 -115
-21 -55 -38 -104 -40 -110 -1 -5 -5 -17 -8 -25 -47 -116 -252 -861 -272 -985
-1 -11 -7 -40 -13 -65 -6 -25 -13 -58 -16 -74 -3 -16 -10 -52 -16 -80 -26
-132 -49 -255 -55 -296 -3 -25 -10 -70 -15 -100 -5 -30 -12 -75 -15 -100 -3
-25 -8 -56 -10 -70 -4 -25 -12 -84 -20 -150 -7 -52 -13 -108 -20 -175 -3 -33
-8 -76 -10 -95 -3 -19 -7 -71 -10 -115 -4 -44 -8 -100 -10 -125 -27 -316 -28
-1150 -1 -1455 7 -75 17 -193 22 -255 2 -30 6 -71 9 -90 2 -19 7 -62 11 -95 3
-33 8 -67 9 -75 2 -8 6 -44 10 -80 4 -36 8 -67 10 -70 2 -3 6 -37 10 -75 4
-39 9 -73 11 -76 2 -3 6 -24 9 -45 2 -21 12 -79 20 -129 9 -49 19 -106 22
-125 3 -19 21 -107 39 -195 19 -88 37 -171 40 -185 2 -14 7 -33 10 -42 3 -10
7 -29 10 -43 8 -46 84 -336 126 -480 68 -237 216 -678 279 -830 7 -16 13 -32
14 -35 1 -3 7 -18 13 -33 7 -16 12 -30 12 -33 0 -2 9 -23 19 -47 11 -23 32
-71 46 -107 15 -36 38 -89 51 -118 13 -29 24 -55 24 -58 0 -14 263 -550 338
-689 64 -119 178 -321 206 -365 13 -19 71 -114 131 -210 140 -226 407 -614
502 -730 7 -8 56 -71 109 -140 94 -121 347 -424 389 -465 11 -12 52 -56 90
-100 81 -92 477 -491 581 -586 39 -35 93 -85 120 -110 66 -61 379 -327 429
-364 22 -16 42 -32 45 -35 11 -12 183 -143 325 -247 361 -264 716 -488 1140
-720 172 -94 590 -296 790 -381 715 -306 1468 -532 2181 -656 93 -17 275 -46
314 -51 25 -3 56 -8 70 -10 36 -6 86 -13 155 -21 33 -3 67 -8 75 -9 8 -2 51
-6 95 -10 44 -4 90 -8 101 -10 12 -2 59 -6 105 -10 46 -4 102 -8 124 -10 144
-13 394 -20 750 -20 352 0 509 4 710 20 22 1 81 6 130 9 50 4 101 9 115 11 14
2 52 6 85 9 66 6 132 13 185 21 19 3 58 7 85 11 28 3 75 9 105 14 30 5 73 12
95 15 40 5 72 10 130 20 47 8 197 34 225 40 14 3 48 9 75 15 28 5 59 11 70 14
79 18 173 38 190 40 16 3 145 34 255 61 225 57 468 129 710 212 118 40 222 75
230 77 20 6 228 85 265 101 17 7 82 34 145 60 377 154 969 447 1207 598 24 15
45 27 47 27 2 0 42 23 88 51 388 238 649 420 1038 720 141 108 414 343 610
524 114 105 419 411 522 523 59 64 118 128 130 142 87 95 359 420 414 495 16
22 31 42 35 45 3 3 25 32 50 65 24 33 46 62 49 65 7 7 143 195 209 290 150
215 408 626 511 815 18 33 55 101 82 150 105 190 428 870 428 900 0 3 9 25 19
48 35 78 212 549 225 602 2 6 6 17 9 25 35 86 174 573 226 795 17 72 36 148
42 170 5 22 11 49 13 60 2 11 18 90 35 175 16 85 33 171 36 190 30 170 36 207
41 243 5 42 10 79 19 127 2 14 7 48 10 75 3 28 7 61 10 75 2 14 7 52 10 85 3
33 8 78 10 100 3 22 7 65 10 95 2 30 7 87 10 125 3 39 8 84 10 100 19 147 28
1068 12 1300 -4 61 -10 142 -12 180 -3 39 -7 94 -10 123 -3 28 -7 78 -10 110
-5 54 -8 83 -20 192 -7 68 -17 143 -21 165 -2 11 -6 43 -9 70 -3 28 -8 57 -10
65 -2 8 -7 39 -10 69 -4 30 -9 63 -11 75 -5 23 -6 33 -29 161 -41 242 -69 370
-147 685 -117 477 -317 1066 -513 1515 -158 362 -407 852 -556 1094 -15 25
-45 75 -65 111 -21 36 -40 67 -44 70 -3 3 -19 28 -35 55 -132 229 -516 765
-735 1029 -89 107 -257 304 -270 316 -8 8 -51 56 -95 105 -84 95 -498 512
-601 605 -122 111 -211 190 -294 260 -47 40 -96 82 -110 94 -283 240 -706 544
-1112 799 -221 139 -732 423 -856 477 -13 5 -71 33 -130 61 -526 252 -1146
478 -1757 639 -66 18 -131 34 -144 37 -14 2 -79 17 -145 33 -130 31 -300 66
-362 75 -22 4 -47 8 -56 11 -18 5 -32 8 -98 18 -19 3 -44 7 -55 10 -11 2 -45
7 -75 11 -30 5 -62 9 -70 11 -14 2 -145 21 -200 29 -71 10 -110 15 -160 20
-30 3 -71 7 -90 10 -19 2 -66 7 -105 10 -38 3 -86 8 -105 10 -19 2 -75 7 -125
11 -49 3 -115 8 -145 10 -66 5 -1017 14 -1022 9z m-5303 -5175 c14 -5 36 -12
48 -14 12 -3 31 -7 42 -10 52 -12 121 -28 135 -31 8 -2 181 -44 385 -94 203
-51 382 -94 399 -97 16 -3 32 -7 36 -9 3 -2 17 -6 31 -9 13 -2 119 -28 234
-56 116 -28 293 -71 395 -96 102 -25 286 -70 410 -101 124 -30 230 -56 235
-57 6 -1 37 -9 70 -16 33 -8 62 -14 65 -15 33 -10 408 -102 444 -110 12 -2 48
-11 81 -19 73 -19 271 -66 294 -71 9 -2 54 -13 101 -25 47 -12 92 -23 100 -25
8 -2 56 -13 105 -25 50 -12 97 -24 105 -25 8 -2 70 -17 137 -34 67 -17 132
-32 145 -35 13 -2 144 -34 292 -71 148 -37 280 -69 292 -71 13 -2 35 -9 49
-14 14 -5 25 -8 25 -5 0 2 15 -1 33 -6 25 -7 245 -61 547 -135 72 -17 299 -72
508 -123 139 -34 260 -64 270 -66 9 -2 44 -11 77 -19 33 -8 119 -29 190 -46
72 -18 249 -61 395 -97 146 -35 272 -66 280 -68 8 -2 42 -10 75 -18 33 -9 71
-18 85 -21 30 -6 8 -1 315 -75 138 -34 266 -65 285 -70 32 -9 111 -28 150 -36
8 -2 62 -15 120 -30 58 -15 113 -29 124 -31 10 -2 102 -24 205 -49 102 -26
195 -49 206 -51 11 -2 29 -6 40 -8 11 -3 48 -12 82 -21 35 -9 71 -18 80 -20
10 -2 104 -24 208 -50 105 -26 197 -48 205 -50 8 -2 44 -11 80 -20 36 -9 74
-18 85 -20 11 -3 98 -24 194 -47 l173 -43 -1363 -1363 -1363 -1363 2277 -2277
c1252 -1252 2277 -2281 2277 -2285 0 -5 -5 -5 -12 -1 -6 4 -30 11 -52 16 -57
12 -58 12 -281 67 -110 27 -240 59 -290 71 -49 12 -244 59 -433 106 -188 46
-352 86 -365 88 -12 2 -42 9 -67 16 -25 7 -52 14 -60 15 -17 4 -242 59 -575
140 -126 31 -237 58 -245 60 -8 2 -118 29 -245 60 -126 31 -257 63 -290 70
-33 8 -80 19 -105 25 -25 7 -53 13 -63 15 -11 3 -130 32 -265 65 -225 56 -352
87 -392 95 -8 2 -60 15 -115 29 -55 13 -111 27 -125 30 -14 2 -133 32 -265 65
-133 33 -252 62 -265 65 -14 3 -54 12 -90 21 -36 9 -72 18 -80 20 -72 16 -143
33 -395 95 -159 40 -297 73 -305 75 -8 2 -82 20 -165 40 -82 20 -157 38 -165
40 -8 2 -71 17 -140 35 -122 31 -310 76 -360 86 -14 3 -34 8 -45 11 -11 4 -25
8 -32 9 -7 1 -40 9 -75 18 -88 22 -600 147 -618 151 -8 2 -35 8 -60 14 -25 7
-54 14 -65 16 -32 7 -127 31 -325 80 -102 25 -194 47 -205 49 -11 3 -40 9 -65
15 -25 7 -54 14 -66 16 -11 3 -94 23 -185 46 -90 22 -171 42 -179 44 -8 2 -55
13 -105 25 -49 12 -97 23 -105 25 -8 2 -35 8 -60 15 -25 7 -53 14 -63 16 -10
2 -27 6 -37 9 -10 3 -27 7 -37 9 -10 2 -36 9 -58 14 -22 6 -51 13 -65 16 -26
4 -417 100 -480 117 -19 5 -151 37 -294 72 l-259 62 1363 1363 c750 749 1361
1364 1359 1367 -2 2 -1030 1030 -2284 2285 -1254 1254 -2277 2280 -2273 2280
4 0 18 -4 33 -10z"/>
</g>
</svg>
