<svg id="Layer_1" data-name="Layer 1" xmlns="http://www.w3.org/2000/svg" viewBox="0 0 500 118.11"><path d="M272.26,29.77h14.86V58q0,8.24,1.13,11.44a10,10,0,0,0,3.64,5,10.44,10.44,0,0,0,6.18,1.77,10.75,10.75,0,0,0,6.23-1.75,10.26,10.26,0,0,0,3.81-5.14q.92-2.52.91-10.82V29.77h14.7V54.59q0,15.33-2.42,21a23,23,0,0,1-8.72,10.58q-5.76,3.68-14.64,3.68-9.65,0-15.59-4.3a22.79,22.79,0,0,1-8.37-12q-1.73-5.32-1.72-19.37Z" style="fill:#fff;"/><path d="M338.36,29.77h14.69V36.5a25.29,25.29,0,0,1,8.38-6.19,24.53,24.53,0,0,1,10.05-2A18.63,18.63,0,0,1,381.39,31a19.46,19.46,0,0,1,7.11,7.86A23.64,23.64,0,0,1,397.09,31a23.34,23.34,0,0,1,11.12-2.69,20.65,20.65,0,0,1,11,2.9A16.79,16.79,0,0,1,426,38.76q2.08,4.68,2.08,15.24V88.34h-14.8V58.62q0-9.94-2.48-13.48t-7.43-3.52a11.22,11.22,0,0,0-6.75,2.15,12.66,12.66,0,0,0-4.44,5.95q-1.45,3.8-1.46,12.19V88.34h-14.8V60q0-7.86-1.16-11.38a10.27,10.27,0,0,0-3.48-5.25,9.15,9.15,0,0,0-5.61-1.72A11,11,0,0,0,359,43.8a13,13,0,0,0-4.48,6.1q-1.49,3.93-1.49,12.38V88.34H338.36Z" style="fill:#fff;"/><path d="M485.31,29.77H500V88.34H485.31V82.15A29,29,0,0,1,476.68,88a24.24,24.24,0,0,1-9.39,1.8q-11.34,0-19.62-8.8t-8.28-21.88q0-13.56,8-22.23a25.55,25.55,0,0,1,19.47-8.66,24.72,24.72,0,0,1,9.89,2,27.17,27.17,0,0,1,8.55,6ZM469.86,41.83a14.85,14.85,0,0,0-11.32,4.82A17.33,17.33,0,0,0,454,59a17.55,17.55,0,0,0,4.59,12.49,14.85,14.85,0,0,0,11.29,4.9,15.15,15.15,0,0,0,11.48-4.82Q486,66.76,486,59q0-7.65-4.56-12.38A15.31,15.31,0,0,0,469.86,41.83Z" style="fill:#fff;"/><path d="M28,29.77h14.7v6a35.37,35.37,0,0,1,9-5.87,22.09,22.09,0,0,1,8.31-1.64,20.09,20.09,0,0,1,14.78,6.08Q80,39.51,80,49.64v38.7H65.45V62.69q0-10.48-.94-13.92a9.57,9.57,0,0,0-3.27-5.25,9.18,9.18,0,0,0-5.78-1.8,10.82,10.82,0,0,0-7.65,3A16,16,0,0,0,43.38,53q-.65,2.74-.64,11.88v23.5H28Z" style="fill:#fff;"/><path d="M137.42,29.77h14.69V88.34H137.42V82.15A29,29,0,0,1,128.79,88a24.19,24.19,0,0,1-9.38,1.8q-11.34,0-19.63-8.8T91.5,59.16q0-13.56,8-22.23A25.53,25.53,0,0,1,119,28.27a24.69,24.69,0,0,1,9.89,2,27.17,27.17,0,0,1,8.55,6ZM122,41.83a14.87,14.87,0,0,0-11.32,4.82A17.37,17.37,0,0,0,106.15,59a17.54,17.54,0,0,0,4.58,12.49A14.85,14.85,0,0,0,122,76.39a15.12,15.12,0,0,0,11.48-4.82q4.56-4.81,4.56-12.62,0-7.65-4.56-12.38A15.3,15.3,0,0,0,122,41.83Z" style="fill:#fff;"/><rect y="29.77" width="14.69" height="58.56" style="fill:#fff;"/><polygon points="226.39 62.27 232.8 68.67 282.23 118.11 163.48 89.2 196.84 55.84 190.43 49.44 140.99 0 259.75 28.91 226.39 62.27" style="fill:#fff;"/></svg>